<?xml version="1.0" encoding="UTF-8"?>
<svg id="Layer_2" data-name="Layer 2" xmlns="http://www.w3.org/2000/svg" viewBox="0 0 54 25.35">
  <defs>
    <style>
      .cls-1 {
        fill: #5c5758;
      }
    </style>
  </defs>
  <g id="Layer_1-2" data-name="Layer 1">
    <g>
      <path class="cls-1" d="M16.17,25.03v.32c-2.41,0-4.82,0-7.23,0-1.2,0-2.41,0-3.61,0h0c-.47,0-.88-.11-1.17-.4-.29-.29-.4-.7-.4-1.17,0-5.87,0-11.74,0-17.61,0-.5.13-.93.43-1.24.3-.31.73-.45,1.23-.45,3.61,0,7.23,0,10.84,0s7.23,0,10.84,0c.5,0,.94.18,1.23.52.29.34.43.81.43,1.35,0,1.27,0,2.53,0,3.8s0,2.53,0,3.8c0,3.18,0,6.36,0,9.54,0,.59-.12,1.07-.45,1.41-.34.33-.83.45-1.42.45h-10.72v-.63h10.72c.52,0,.81-.11.97-.27.16-.16.27-.44.27-.96,0-3.18,0-6.36,0-9.54,0-1.27,0-2.53,0-3.8s0-2.53,0-3.8c0-.44-.11-.75-.27-.94-.17-.19-.39-.3-.75-.3-3.61,0-7.23,0-10.84,0s-7.23,0-10.84,0c-.39,0-.63.1-.78.26-.15.15-.25.41-.25.8,0,5.87,0,11.74,0,17.61,0,.38.09.6.21.72.12.12.34.21.72.21h0c1.2,0,2.41,0,3.61,0,2.41,0,4.82,0,7.23,0v.32Z"/>
      <path class="cls-1" d="M41.03,25.03v.32c-2.5,0-5.01,0-7.51,0-1.25,0-2.5,0-3.76,0-.5,0-.92-.1-1.22-.4-.3-.29-.41-.72-.41-1.21V6.2c0-.54.1-.99.42-1.31.33-.31.78-.41,1.35-.41,1.25,0,2.51,0,3.76,0,1.71,0,3.41,0,5.12,0,2.5,0,5,0,7.51,0,1.93,0,3.85,0,5.78,0,.73,0,1.24.14,1.56.5.32.36.36.82.36,1.29v.03c-.02,2.89-.02,5.79-.02,8.68s0,5.83,0,8.74c0,.5-.1.93-.41,1.23-.31.29-.74.39-1.27.39h-11.27v-.63h11.27c.46,0,.71-.09.83-.21.13-.12.22-.34.22-.77,0-2.91,0-5.83,0-8.74s0-5.79.02-8.68v-.03c0-.44-.06-.72-.2-.87-.13-.15-.43-.29-1.09-.29-1.93,0-3.85,0-5.78,0-2.5,0-5,0-7.51,0-1.71,0-3.41,0-5.12,0-1.25,0-2.51,0-3.76,0-.5,0-.77.1-.91.23-.14.13-.23.38-.23.86v17.54c0,.41.09.63.22.75.13.13.36.22.78.22,1.25,0,2.5,0,3.75,0,2.5,0,5.01,0,7.51,0v.32Z"/>
      <path class="cls-1" d="M27.01.32v-.32h25.5c.48,0,.86.05,1.15.33.28.29.32.68.32,1.16,0,.3,0,.6,0,.9,0,.21,0,.42,0,.63,0,.31-.09.6-.3.81-.21.21-.5.3-.8.3h-.16c-.11,0-.21,0-.31,0H5.22c-.55,0-.98.06-1.36.39h0s0,0,0,0c-.43.38-.54.83-.54,1.43v17.96c0,.24-.01.45-.05.63-.05.27-.22.54-.49.66-.26.12-.54.13-.91.14h0c-.13,0-.26,0-.39,0h-.27s0,0,0,0c-.34,0-.65-.11-.88-.33-.23-.22-.33-.54-.33-.88,0-4.16,0-8.31,0-12.47C0,8.18,0,4.7,0,1.22,0,.86.11.53.36.31c.25-.22.59-.31.97-.31h25.68v.63H1.33c-.29,0-.46.07-.54.15-.09.08-.15.2-.15.44,0,3.48,0,6.96,0,10.44,0,4.16,0,8.32,0,12.47,0,.22.06.35.15.43.08.08.22.15.44.15h.25c.13,0,.26,0,.39,0h0c.23,0,.4-.01.52-.04.18-.05.18-.06.23-.13.04-.08.08-.29.08-.62V5.96c0-.68.15-1.38.76-1.91h0s0,0,0,0c.55-.48,1.19-.55,1.78-.55h47.18c.11,0,.21,0,.31,0h.15s0,0,0,0h0c.21,0,.31-.06.37-.12.06-.06.11-.16.11-.37,0-.21,0-.42,0-.63,0-.3,0-.6,0-.9,0-.45-.07-.66-.14-.72-.06-.07-.25-.14-.69-.14h-25.5v-.32Z"/>
    </g>
  </g>
</svg>